# xmcd CD database file
#
# Track frame offsets:
#	150
#	20599
#	42534
#	60153
#	76426
#	93723
#	110506
#	126117
#	139351
#	152809
#
# Disc length: 2401 seconds
#
# Revision: 1
# Processed by: cddbd v1.5.2PL0 Copyright (c) Steve Scherf et al.
# Submitted via: CDex 1.70beta2
#
DISCID=87095f0a
DTITLE=Евгений Маргулис - Продолжение следует
DYEAR=2007
DGENRE=Blues
TTITLE0=МэриДжейнИМэриЭнн
TTITLE1=Не плачь обо мне
TTITLE2=Спой со мной
TTITLE3=Трава
TTITLE4=Джаз
TTITLE5=Сакура катана сакэ
TTITLE6=О.К.
TTITLE7=Неколыбельная
TTITLE8=Минк-шминк
TTITLE9=Ангел
EXTD=YEAR: 2007
EXTT0=
EXTT1=
EXTT2=
EXTT3=
EXTT4=
EXTT5=
EXTT6=
EXTT7=
EXTT8=
EXTT9=
PLAYORDER=
